<svg xmlns="http://www.w3.org/2000/svg" width="800" height="800" viewBox="0 0 800 800">
  <defs>
    <pattern id="occultGrid" patternUnits="userSpaceOnUse" width="100" height="100">
      <path d="M50 0 L50 100 M0 50 L100 50" stroke="#500" stroke-width="0.5" fill="none" />
      <circle cx="50" cy="50" r="10" stroke="#500" stroke-width="0.5" fill="none" />
    </pattern>
    <pattern id="smallSymbols" patternUnits="userSpaceOnUse" width="200" height="200">
      <path d="M50 50 L70 70 M50 70 L70 50" stroke="#500" stroke-width="0.5" fill="none" />
      <path d="M150 50 L130 70 M150 70 L130 50" stroke="#500" stroke-width="0.5" fill="none" />
      <path d="M50 150 L70 130 M50 130 L70 150" stroke="#500" stroke-width="0.5" fill="none" />
      <path d="M150 150 L130 130 M150 130 L130 150" stroke="#500" stroke-width="0.5" fill="none" />
      <circle cx="100" cy="100" r="30" stroke="#500" stroke-width="0.5" fill="none" />
      <path d="M100 70 L100 130 M70 100 L130 100" stroke="#500" stroke-width="0.5" fill="none" />
    </pattern>
  </defs>
  <rect width="800" height="800" fill="url(#occultGrid)" />
  <rect width="800" height="800" fill="url(#smallSymbols)" />
  <g fill="none" stroke="#500" stroke-width="1">
    <circle cx="400" cy="400" r="300" />
    <circle cx="400" cy="400" r="200" />
    <path d="M400 100 L400 700" />
    <path d="M100 400 L700 400" />
    <path d="M195 195 L605 605" />
    <path d="M195 605 L605 195" />
  </g>
</svg>